TITLE ""
FILE "DISC2Track25.mp3" MP3
  TRACK 01 AUDIO
    TITLE "DISC2Track25_01"
    INDEX 01 00:00:00
  TRACK 02 AUDIO
    TITLE "DISC2Track25_02"
    INDEX 01 00:01:35
  TRACK 03 AUDIO
    TITLE "DISC2Track25_03"
    INDEX 01 00:01:51
  TRACK 04 AUDIO
    TITLE "DISC2Track25_04"
    INDEX 01 00:05:51
  TRACK 05 AUDIO
    TITLE "DISC2Track25_05"
    INDEX 01 00:09:03
  TRACK 06 AUDIO
    TITLE "DISC2Track25_06"
    INDEX 01 00:11:71
  TRACK 07 AUDIO
    TITLE "DISC2Track25_07"
    INDEX 01 00:12:10
  TRACK 08 AUDIO
    TITLE "DISC2Track25_08"
    INDEX 01 00:13:52
  TRACK 09 AUDIO
    TITLE "DISC2Track25_09"
    INDEX 01 00:15:57
  TRACK 10 AUDIO
    TITLE "DISC2Track25_10"
    INDEX 01 00:17:34
  TRACK 11 AUDIO
    TITLE "DISC2Track25_11"
    INDEX 01 00:17:50
  TRACK 12 AUDIO
    TITLE "DISC2Track25_12"
    INDEX 01 00:21:22
  TRACK 13 AUDIO
    TITLE "DISC2Track25_13"
    INDEX 01 00:24:21
  TRACK 14 AUDIO
    TITLE "DISC2Track25_14"
    INDEX 01 00:26:59
  TRACK 15 AUDIO
    TITLE "DISC2Track25_15"
    INDEX 01 00:26:72
  TRACK 16 AUDIO
    TITLE "DISC2Track25_16"
    INDEX 01 00:29:57
  TRACK 17 AUDIO
    TITLE "DISC2Track25_17"
    INDEX 01 00:32:44
  TRACK 18 AUDIO
    TITLE "DISC2Track25_18"
    INDEX 01 00:34:70
  TRACK 19 AUDIO
    TITLE "DISC2Track25_19"
    INDEX 01 00:35:11
  TRACK 20 AUDIO
    TITLE "DISC2Track25_20"
    INDEX 01 00:39:24
  TRACK 21 AUDIO
    TITLE "DISC2Track25_21"
    INDEX 01 00:43:02
  TRACK 22 AUDIO
    TITLE "DISC2Track25_22"
    INDEX 01 00:46:22
  TRACK 23 AUDIO
    TITLE "DISC2Track25_23"
    INDEX 01 00:46:38
  TRACK 24 AUDIO
    TITLE "DISC2Track25_24"
    INDEX 01 00:50:59
  TRACK 25 AUDIO
    TITLE "DISC2Track25_25"
    INDEX 01 00:53:65
  TRACK 26 AUDIO
    TITLE "DISC2Track25_26"
    INDEX 01 00:56:36
  TRACK 27 AUDIO
    TITLE "DISC2Track25_27"
    INDEX 01 00:56:46
  TRACK 28 AUDIO
    TITLE "DISC2Track25_28"
    INDEX 01 01:00:60
  TRACK 29 AUDIO
    TITLE "DISC2Track25_29"
    INDEX 01 01:05:14
  TRACK 30 AUDIO
    TITLE "DISC2Track25_30"
    INDEX 01 01:09:10
  TRACK 31 AUDIO
    TITLE "DISC2Track25_31"
    INDEX 01 01:09:17
  TRACK 32 AUDIO
    TITLE "DISC2Track25_32"
    INDEX 01 01:12:55
  TRACK 33 AUDIO
    TITLE "DISC2Track25_33"
    INDEX 01 01:16:53
  TRACK 34 AUDIO
    TITLE "DISC2Track25_34"
    INDEX 01 01:20:11
  TRACK 35 AUDIO
    TITLE "DISC2Track25_35"
    INDEX 01 01:20:29
  TRACK 36 AUDIO
    TITLE "DISC2Track25_36"
    INDEX 01 01:24:17
  TRACK 37 AUDIO
    TITLE "DISC2Track25_37"
    INDEX 01 01:27:15
  TRACK 38 AUDIO
    TITLE "DISC2Track25_38"
    INDEX 01 01:29:61
  TRACK 39 AUDIO
    TITLE "DISC2Track25_39"
    INDEX 01 01:30:04
  TRACK 40 AUDIO
    TITLE "DISC2Track25_40"
    INDEX 01 01:33:53
  TRACK 41 AUDIO
    TITLE "DISC2Track25_41"
    INDEX 01 01:37:22
  TRACK 42 AUDIO
    TITLE "DISC2Track25_42"
    INDEX 01 01:40:28
  TRACK 43 AUDIO
    TITLE "DISC2Track25_43"
    INDEX 01 01:40:43
  TRACK 44 AUDIO
    TITLE "DISC2Track25_44"
    INDEX 01 01:44:12
  TRACK 45 AUDIO
    TITLE "DISC2Track25_45"
    INDEX 01 01:47:26
  TRACK 46 AUDIO
    TITLE "DISC2Track25_46"
    INDEX 01 01:50:06
